<?xml version="1.0" standalone="yes"?>
<svg xmlns="http://www.w3.org/2000/svg" width="164" height="160">
<path style="fill:#ffffff; stroke:none;" d="M0 0L0 160L164 160L164 0L0 0z"/>
<path style="fill:#e88abc; stroke:none;" d="M82 9C84.6127 10.0977 87.1645 9.99278 90 10C87.3873 8.90228 84.8355 9.00722 82 9z"/>
<path style="fill:#f2c0da; stroke:none;" d="M90.3333 9.66667C90.2778 9.72218 90.2222 10.7778 90.6667 10.3333C90.7223 10.2777 90.7777 9.22226 90.3333 9.66667z"/>
<path style="fill:#ea95c2; stroke:none;" d="M78.6667 10.3333C78.2222 10.7778 79.2778 10.7222 79.3333 10.6667C79.7777 10.2223 78.7223 10.2777 78.6667 10.3333z"/>
<path style="fill:#e061a4; stroke:none;" d="M65 57L34 57C34 46.0998 32.0287 34.4928 38 25L16 25C20.5597 32.2488 20 38.6627 20 47L20 76C20 83.0056 20.6363 90.2833 18.2353 97C16.3647 102.233 11.7983 104.586 9 109C13.9183 109 19.4323 109.635 23.9961 107.427C38.9193 100.209 34 73.3586 34 60L65 60C65 68.9813 68.9349 87.8547 58 91C65.4089 94.1089 76.9755 92 85 92C77.7966 85.27 79 78.312 79 69L79 41C79 29.1454 79.1177 18.0667 90 11C81.3938 7.3887 71.1541 12.9337 67.4167 21.0008C62.6255 31.3422 65 45.9012 65 57z"/>
<path style="fill:#f2c0da; stroke:none;" d="M76 11L77 12L76 11z"/>
<path style="fill:#eeaace; stroke:none;" d="M73 13L74 14L73 13M85 13L86 14L85 13z"/>
<path style="fill:#f0b5d4; stroke:none;" d="M84 14L85 15L84 14z"/>
<path style="fill:#f2c0da; stroke:none;" d="M69 17L70 18L69 17M80 22L80 25C80.6961 23.4463 80.6961 23.5537 80 22z"/>
<path style="fill:#e88abc; stroke:none;" d="M12 24C15.4645 25.8642 19.1535 25.0434 23 25.0039C29.2989 24.9391 35.7484 25.6673 42 25C33.8723 21.5895 20.8136 24 12 24M97 24C103.221 27.3473 114.904 25 122 25C115.072 22.0929 104.497 24 97 24z"/>
<path style="fill:#f6d5e6; stroke:none;" d="M12 25C13.2484 25.6848 13.5484 25.7488 15 26C13.7517 25.3152 13.4515 25.2512 12 25M39 25C40.2483 25.6848 40.5485 25.7488 42 26C40.7516 25.3152 40.4516 25.2512 39 25z"/>
<path style="fill:#e061a4; stroke:none;" d="M101 25C103.48 30.8537 103 36.7468 103 43L103 71C97.8663 65.6199 94.3476 60.5891 94 53C90.8976 60.41 95.5403 69.9447 102.004 74.0054C111.524 79.9867 130.193 80.1328 138.956 72.6566C149.389 63.7557 142.862 48.6687 130 48C137.077 41.5743 138.273 30.7422 127.996 26.483C120.122 23.2195 109.379 25 101 25z"/>
<path style="fill:#f4cae0; stroke:none;" d="M125.667 25.3333C125.222 25.7778 126.278 25.7222 126.333 25.6667C126.778 25.2222 125.722 25.2778 125.667 25.3333z"/>
<path style="fill:#ea95c2; stroke:none;" d="M65 26L65 29C65.6961 27.4463 65.6961 27.5537 65 26z"/>
<path style="fill:#f2c0da; stroke:none;" d="M101 26L102 27L101 26z"/>
<path style="fill:#eeaace; stroke:none;" d="M128 26L129 27L128 26M79 27L79 87C80.8752 82.5313 80 76.8087 80 72L80 43C80 37.9198 80.9806 31.7199 79 27z"/>
<path style="fill:#f6d5e6; stroke:none;" d="M102.333 27.6667C102.278 27.7222 102.222 28.7778 102.667 28.3333C102.722 28.2777 102.778 27.2223 102.333 27.6667z"/>
<path style="fill:#eeaace; stroke:none;" d="M114 27L114 75L121 75C118.948 74.1258 117.253 74.0472 115 74L115 42C115 37.2843 114.055 31.8879 117 28C115.752 27.3152 115.452 27.2512 114 27M130 27L131 28L130 27z"/>
<path style="fill:#ffffff; stroke:none;" d="M115 28L115 74C119.405 73.9631 124.232 73.8704 127.606 70.581C132.096 66.2029 132.343 56.7947 127.721 52.419C124.799 49.6521 120.819 49.1749 117 49C123.018 42.9136 127.583 29.4142 115 28z"/>
<path style="fill:#eeaace; stroke:none;" d="M19 29L19 93C21.0851 88.0309 20 81.3503 20 76L20 45C20 39.9198 20.9806 33.7199 19 29M34.3333 29.6667C34.2778 29.7222 34.2222 30.7778 34.6667 30.3333C34.7222 30.2778 34.7778 29.2222 34.3333 29.6667z"/>
<path style="fill:#f6d5e6; stroke:none;" d="M34 31L34 56C36.4129 50.2497 36.4129 36.7503 34 31M64 31L64 56C66.4129 50.2497 66.4129 36.7503 64 31z"/>
<path style="fill:#eeaace; stroke:none;" d="M122 31L123 32L122 31M134 31L135 32L134 31M123.333 33.6667C123.278 33.7222 123.222 34.7778 123.667 34.3333C123.722 34.2778 123.778 33.2222 123.333 33.6667z"/>
<path style="fill:#e88abc; stroke:none;" d="M135.333 33.6667C135.278 33.7222 135.222 34.7778 135.667 34.3333C135.722 34.2778 135.778 33.2222 135.333 33.6667z"/>
<path style="fill:#f6d5e6; stroke:none;" d="M123 35L123 41C123.951 38.7148 123.951 37.2853 123 35z"/>
<path style="fill:#f2c0da; stroke:none;" d="M122 43L123 44L122 43z"/>
<path style="fill:#f0b5d4; stroke:none;" d="M134 43L135 44L134 43z"/>
<path style="fill:#eeaace; stroke:none;" d="M130 48L133 48L132 46C130.365 46.5451 130.545 46.3648 130 48M117 47L117 49L119 49L119 47L117 47z"/>
<path style="fill:#f0b5d4; stroke:none;" d="M135 48L136 49L135 48z"/>
<path style="fill:#f2c0da; stroke:none;" d="M122 49L123 50L122 49z"/>
<path style="fill:#eeaace; stroke:none;" d="M137 49L138 50L137 49M125 50L126 51L125 50z"/>
<path style="fill:#f2c0da; stroke:none;" d="M140 51L141 52L140 51z"/>
<path style="fill:#eeaace; stroke:none;" d="M93 52L94 53L93 52z"/>
<path style="fill:#de8b27; stroke:none;" d="M121 52L121 58C121.951 55.7147 121.951 54.2853 121 52z"/>
<path style="fill:#f6d5e6; stroke:none;" d="M92 54L92 58C92.7102 56.2405 92.7102 55.7595 92 54z"/>
<path style="fill:#eca932; stroke:none;" d="M120 54L120 58C120.71 56.2405 120.71 55.7595 120 54z"/>
<path style="fill:#eaa639; stroke:none;" d="M122 54L122 61C123.059 58.4657 123.059 56.5343 122 54z"/>
<path style="fill:#f4cae0; stroke:none;" d="M94.3333 55.6667C94.2778 55.7222 94.2222 56.7778 94.6667 56.3333C94.7222 56.2778 94.7778 55.2222 94.3333 55.6667z"/>
<path style="fill:#f2c0da; stroke:none;" d="M130.333 55.6667C130.278 55.7223 130.222 56.7778 130.667 56.3333C130.722 56.2778 130.778 55.2222 130.333 55.6667z"/>
<path style="fill:#e88abc; stroke:none;" d="M34 56C42.3668 59.5108 55.9238 57 65 57C56.6332 53.4892 43.0762 56 34 56z"/>
<path style="fill:#fbbe43; stroke:none;" d="M119 56L118 62C119.495 59.8149 119.889 58.508 119 56z"/>
<path style="fill:#ffcf44; stroke:none;" d="M123 56C123.033 60.3661 123.364 64.6385 123 69C126.42 66.0113 125.365 59.4621 123 56z"/>
<path style="fill:#eeaace; stroke:none;" d="M143 56L144 57L143 56z"/>
<path style="fill:#ea95c2; stroke:none;" d="M94.3333 57.6667C94.2778 57.7222 94.2222 58.7778 94.6667 58.3333C94.7222 58.2778 94.7778 57.2222 94.3333 57.6667z"/>
<path style="fill:#ffffff; stroke:none;" d="M120 58C119.214 60.1596 117.602 63.2242 118.646 65.5471C119.972 68.4976 123.133 66.3805 123.307 63.9421C123.443 62.0329 122.476 59.8214 122 58L120 58z"/>
<path style="fill:#eeaace; stroke:none;" d="M131 58L131 64C131.951 61.7148 131.951 60.2853 131 58M144 58L144 65C145.059 62.4657 145.059 60.5343 144 58M34 60C42.3668 63.5108 55.9238 61 65 61C56.6332 57.4892 43.0762 60 34 60z"/>
<path style="fill:#ea95c2; stroke:none;" d="M95.3333 60.6667C95.2778 60.7222 95.2223 61.7778 95.6667 61.3333C95.7222 61.2778 95.7778 60.2222 95.3333 60.6667z"/>
<path style="fill:#e9a73d; stroke:none;" d="M117 60L117 68C118.161 65.2301 118.161 62.7699 117 60z"/>
<path style="fill:#d69732; stroke:none;" d="M125 60L125 68C126.529 65.1581 126.444 62.8756 125 60z"/>
<path style="fill:#f6d5e6; stroke:none;" d="M34 61L34 90C36.2921 84.5378 35.0004 76.8868 35 71C34.9998 67.5814 35.3283 64.1656 34 61M64 61L64 87C66.477 81.097 66.477 66.903 64 61z"/>
<path style="fill:#f2c0da; stroke:none;" d="M93 61L93 64C93.6961 62.4463 93.6961 62.5537 93 61z"/>
<path style="fill:#f0b5d4; stroke:none;" d="M96 63L97 64L96 63z"/>
<path style="fill:#b26f29; stroke:none;" d="M116 63L117 64L116 63z"/>
<path style="fill:#f0b5d4; stroke:none;" d="M98 66L99 67L98 66z"/>
<path style="fill:#eeaace; stroke:none;" d="M130 66L131 67L130 66M95 67L96 68L95 67z"/>
<path style="fill:#fdca40; stroke:none;" d="M118 67L118 69L120 69L120 67L118 67z"/>
<path style="fill:#de8b27; stroke:none;" d="M122 67C120.964 68.1864 120.661 68.6036 120 70C122.251 69.5268 123.118 69.1397 122 67z"/>
<path style="fill:#f2c0da; stroke:none;" d="M143 67L144 68L143 67M97 70L98 71L97 70M102 70L103 71L102 70M141 70L142 71L141 70z"/>
<path style="fill:#f0b5d4; stroke:none;" d="M98 71L99 72L98 71z"/>
<path style="fill:#f2c0da; stroke:none;" d="M140 71L141 72L140 71M99 72L100 73L99 72M139 72L140 73L139 72z"/>
<path style="fill:#ec9fc8; stroke:none;" d="M122.667 73.3333C122.222 73.7778 123.278 73.7222 123.333 73.6667C123.778 73.2222 122.722 73.2778 122.667 73.3333z"/>
<path style="fill:#eeaace; stroke:none;" d="M102 74L103 75L102 74M136 74L137 75L136 74M104 75L105 76L104 75z"/>
<path style="fill:#ea95c2; stroke:none;" d="M106.667 76.3333C106.222 76.7778 107.278 76.7222 107.333 76.6667C107.778 76.2222 106.722 76.2778 106.667 76.3333z"/>
<path style="fill:#f2c0da; stroke:none;" d="M131.667 76.3333C131.222 76.7777 132.278 76.7222 132.333 76.6667C132.778 76.2222 131.722 76.2778 131.667 76.3333z"/>
<path style="fill:#f0b5d4; stroke:none;" d="M109.667 77.3333C109.222 77.7778 110.278 77.7222 110.333 77.6667C110.778 77.2222 109.722 77.2778 109.667 77.3333z"/>
<path style="fill:#e88abc; stroke:none;" d="M111.667 77.3333C111.222 77.7778 112.278 77.7222 112.333 77.6667C112.778 77.2222 111.722 77.2778 111.667 77.3333z"/>
<path style="fill:#eeaace; stroke:none;" d="M126 77C127.248 77.6848 127.548 77.7488 129 78C127.752 77.3152 127.452 77.2512 126 77z"/>
<path style="fill:#f6d5e6; stroke:none;" d="M115 78C117.613 79.0977 120.165 78.9928 123 79C120.387 77.9023 117.835 78.0072 115 78z"/>
<path style="fill:#fabb43; stroke:none;" d="M97 86L97 90C100.992 88.7254 109.062 88.3774 110 84L97 86z"/>
<path style="fill:#eead33; stroke:none;" d="M110 87L117 86L117 84C113.637 84 110.796 83.2841 110 87z"/>
<path style="fill:#dd8a27; stroke:none;" d="M117 84L117 86L126 86L126 84L117 84z"/>
<path style="fill:#ecaa3c; stroke:none;" d="M126 84L126 86L129 86L129 84L126 84z"/>
<path style="fill:#fece46; stroke:none;" d="M129 84L129 86C133.666 86.3682 138.447 86.913 143 88C140.008 84.0658 133.646 84.0959 129 84z"/>
<path style="fill:#e7af39; stroke:none;" d="M143 86C143.902 87.9225 144.076 87.9988 146 89C145.101 86.8764 145.124 86.8993 143 86z"/>
<path style="fill:#df9d39; stroke:none;" d="M97 97C96.5025 93.4902 96.5025 90.5097 97 87C89.7931 88.5029 89.7931 95.4971 97 97z"/>
<path style="fill:#c37d2c; stroke:none;" d="M146 87C146.98 88.7833 146.908 88.5943 149 89C147.861 87.9846 147.388 87.6914 146 87z"/>
<path style="fill:#eeaace; stroke:none;" d="M80 88L81 89L80 88z"/>
<path style="fill:#de8b27; stroke:none;" d="M122 88C120.521 88.9857 120.797 89 119 89C119.062 90.7387 118.522 91.3751 118 93L123 93C122.912 91.0359 122.779 89.7691 122 88z"/>
<path style="fill:#f2c0da; stroke:none;" d="M81 89L82 90L81 89z"/>
<path style="fill:#fab943; stroke:none;" d="M108 90C108.013 93.1942 107.597 95.2708 111 96L109 93L119 90C115.444 88.5495 111.754 89.7038 108 90z"/>
<path style="fill:#f1b242; stroke:none;" d="M123 89L123 93L125 93L125 89L123 89z"/>
<path style="fill:#fecd4a; stroke:none;" d="M125 89C127.613 90.0977 130.165 89.9928 133 90C130.387 88.9023 127.835 89.0072 125 89z"/>
<path style="fill:#c7822d; stroke:none;" d="M133 89L134 90L133 89z"/>
<path style="fill:#b66b28; stroke:none;" d="M149.667 89.3333C149.222 89.7777 150.278 89.7222 150.333 89.6667C150.778 89.2222 149.722 89.2778 149.667 89.3333z"/>
<path style="fill:#eeaace; stroke:none;" d="M61 90L62 91L61 90z"/>
<path style="fill:#b26f29; stroke:none;" d="M90 90L90 94C90.7102 92.2405 90.7102 91.7595 90 90z"/>
<path style="fill:#ffffff; stroke:none;" d="M118.667 90.3333C118.222 90.7778 119.278 90.7222 119.333 90.6667C119.778 90.2222 118.722 90.2778 118.667 90.3333z"/>
<path style="fill:#eeaace; stroke:none;" d="M57 91C60.8694 95.428 74.3412 93.0355 79.9992 92.9992C82.878 92.9808 85.0845 93.1921 87 91C77.7173 92.7233 66.2207 93.1953 57 91z"/>
<path style="fill:#e2a03a; stroke:none;" d="M106 91C106.027 93.3786 106.06 93.6832 108 95L108 91L106 91z"/>
<path style="fill:#fdcb51; stroke:none;" d="M125 91L125 93L127 93L127 91L125 91z"/>
<path style="fill:#d69933; stroke:none;" d="M136 91L138 96C138.779 94.231 138.912 92.9641 139 91L136 91z"/>
<path style="fill:#f0b5d4; stroke:none;" d="M33 92L33 95C33.6961 93.4463 33.6961 93.5537 33 92z"/>
<path style="fill:#e9a73d; stroke:none;" d="M114 92L114 96C114.71 94.2405 114.71 93.7595 114 92z"/>
<path style="fill:#c6822d; stroke:none;" d="M139 92L139 96C140.267 94.457 140.489 93.9522 141 92L139 92z"/>
<path style="fill:#b26f29; stroke:none;" d="M113.333 93.6667C113.278 93.7222 113.222 94.7778 113.667 94.3333C113.722 94.2778 113.778 93.2222 113.333 93.6667z"/>
<path style="fill:#fcca3f; stroke:none;" d="M115 93C115.578 95.6975 116.261 95.7893 119 96C117.778 94.267 116.991 93.8486 115 93z"/>
<path style="fill:#cc8b2f; stroke:none;" d="M150 93L149 101C152.089 98.9981 151.959 96.5355 152 93L150 93z"/>
<path style="fill:#ffcf43; stroke:none;" d="M124 95C126.044 95.7744 126.845 95.5922 129 95C127.057 94.3782 126.051 94.5642 124 95z"/>
<path style="fill:#b66b28; stroke:none;" d="M129.667 94.3333C129.222 94.7777 130.278 94.7222 130.333 94.6667C130.778 94.2222 129.722 94.2778 129.667 94.3333z"/>
<path style="fill:#fcc954; stroke:none;" d="M137 94C134.627 95.0123 132.551 95.6216 130 96L130 100C134.441 99.9083 138.766 99.3387 143 98C140.767 96.7831 138.852 95.7869 137 94z"/>
<path style="fill:#ba7129; stroke:none;" d="M152 94L152 100C154.101 97.5296 154.145 96.4272 152 94z"/>
<path style="fill:#eeaace; stroke:none;" d="M18.3333 95.6667C18.2778 95.7222 18.2222 96.7778 18.6667 96.3333C18.7222 96.2778 18.7778 95.2222 18.3333 95.6667z"/>
<path style="fill:#fbc043; stroke:none;" d="M97 95C97.7055 98.309 99.8351 98.3611 103 99C109.843 100.381 114.408 98.0277 121 98C117.063 96.3484 113.146 97.6442 109 97.3912C104.952 97.1442 100.957 95.8164 97 95z"/>
<path style="fill:#e08f2a; stroke:none;" d="M119 95C120.769 95.7789 122.036 95.9124 124 96C122.231 95.2211 120.964 95.0876 119 95z"/>
<path style="fill:#c9862e; stroke:none;" d="M146 97C147.58 96.3164 147.777 96.1952 149 95C147.42 95.6836 147.223 95.8048 146 97z"/>
<path style="fill:#ce8b32; stroke:none;" d="M110.667 96.3333C110.222 96.7778 111.278 96.7222 111.333 96.6667C111.778 96.2222 110.722 96.2778 110.667 96.3333z"/>
<path style="fill:#f0b242; stroke:none;" d="M129 96L126 99C127.506 99.683 128.315 99.8259 130 100C129.826 98.3148 129.683 97.506 129 96z"/>
<path style="fill:#e7af39; stroke:none;" d="M143 98C144.58 97.3164 144.777 97.1952 146 96C143.908 96.4057 143.98 96.2167 143 98z"/>
<path style="fill:#dd8a27; stroke:none;" d="M114 98L114 100C117.024 100 121.194 101.76 124 100.667C126.238 99.7943 125.379 98.3382 128 98C123.652 96.1926 118.622 97.9046 114 98z"/>
<path style="fill:#ffffff; stroke:none;" d="M133 97C134.769 97.779 136.036 97.9124 138 98C136.231 97.2211 134.964 97.0876 133 97z"/>
<path style="fill:#ecb53a; stroke:none;" d="M148 97C147.438 98.8005 147.176 100.122 147 102L149 102C148.912 100.036 148.779 98.769 148 97z"/>
<path style="fill:#ffffff; stroke:none;" d="M125 98C126.248 98.6848 126.548 98.7488 128 99C126.752 98.3152 126.452 98.2512 125 98z"/>
<path style="fill:#eeaace; stroke:none;" d="M17 99L18 100L17 99z"/>
<path style="fill:#ca8731; stroke:none;" d="M91 99C92.1394 100.015 92.6116 100.309 94 101C93.0198 99.2167 93.0924 99.4057 91 99z"/>
<path style="fill:#fdcc4c; stroke:none;" d="M132 105C137.132 103.775 144.967 104.8 147 99C142.031 99.6692 133.751 99.7242 132 105z"/>
<path style="fill:#fabb43; stroke:none;" d="M94 100C98.7565 104.137 106.065 103.571 112 105C111.013 100.395 98.4701 100.225 94 100z"/>
<path style="fill:#eeaace; stroke:none;" d="M16 101L17 102L16 101z"/>
<path style="fill:#eaa530; stroke:none;" d="M112 102L112 105L119 105L119 102L112 102z"/>
<path style="fill:#dd8927; stroke:none;" d="M119 102L119 105L129 105L129 102L119 102z"/>
<path style="fill:#edab3c; stroke:none;" d="M129 102L129 105L132 105L132 102L129 102z"/>
<path style="fill:#f0b5d4; stroke:none;" d="M12 105L13 106L12 105z"/>
<path style="fill:#f2c0da; stroke:none;" d="M8 108L9 109L8 108z"/>
<path style="fill:#f4cae0; stroke:none;" d="M21.6667 108.333C21.2222 108.778 22.2778 108.722 22.3333 108.667C22.7778 108.222 21.7222 108.278 21.6667 108.333z"/>
<path style="fill:#eeaace; stroke:none;" d="M10 109C12.8897 110.213 15.8741 109.998 19 110C16.1103 108.787 13.1259 109.002 10 109M9 117L9 132C10.9801 127.281 8.21332 121.103 13 118C11.4939 117.317 10.6852 117.174 9 117z"/>
<path style="fill:#f6d5e6; stroke:none;" d="M17.3333 117.667C17.2778 117.722 17.2222 118.778 17.6667 118.333C17.7222 118.278 17.7778 117.222 17.3333 117.667z"/>
<path style="fill:#e88abc; stroke:none;" d="M18 117C19.2484 117.685 19.5484 117.749 21 118C19.7516 117.315 19.4516 117.251 18 117z"/>
<path style="fill:#f6d5e6; stroke:none;" d="M21 117L21 132L17 131C18.5398 132.803 19.5975 132.832 22 133C22 127.91 22.9822 121.724 21 117M24 117L24 133L33 133C30.3873 131.902 27.8355 132.007 25 132C25 127.183 25.8763 121.471 24 117z"/>
<path style="fill:#e88abc; stroke:none;" d="M25 117C27.5275 118.092 30.3018 118.349 33 119C30.896 116.591 28.0941 117.01 25 117M36 117C38.3315 117.985 40.4567 117.981 43 118C40.6684 117.015 38.5433 117.019 36 117z"/>
<path style="fill:#e061a4; stroke:none;" d="M53 130L49 130L49 132C57.9975 131.705 55.6499 125.802 52 120L53 119L56 120C55.0699 115.66 49.5863 116.682 49.1389 121C48.8034 124.237 51.9573 127.114 53 130z"/>
<path style="fill:#f8dfec; stroke:none;" d="M56 117L55 121C56.6556 119.596 56.7511 119.046 56 117z"/>
<path style="fill:#e88abc; stroke:none;" d="M65 119C67.7092 118.352 70.2155 118.058 73 118C70.0802 116.777 67.1633 116.524 65 119z"/>
<path style="fill:#f6d5e6; stroke:none;" d="M78 117L78 133L83 133C83 127.6 82.7425 122.282 84 117C80.4658 120.088 82 127.569 82 132L79 132C79 127.183 79.8763 121.471 78 117z"/>
<path style="fill:#e88abc; stroke:none;" d="M79 117C80.2483 117.685 80.5484 117.749 82 118C80.7516 117.315 80.4516 117.251 79 117M84 119L89 118C86.6996 117.084 85.6232 117.121 84 119z"/>
<path style="fill:#eeaace; stroke:none;" d="M95 117C96.2484 117.685 96.5484 117.749 98 118L98 132C99.8763 127.529 99 121.817 99 117L95 117z"/>
<path style="fill:#e061a4; stroke:none;" d="M106 129C104.15 129.202 102.85 129.202 101 129C102.337 135.241 111.936 130.855 107.5 124.25C106.633 122.959 105.301 122.613 104 122L104 120L105 119L109 120C107.095 117.076 101.938 116.186 101.546 121.019C101.304 124.004 104.421 126.761 106 129z"/>
<path style="fill:#eeaace; stroke:none;" d="M108 117L109 118L108 117z"/>
<path style="fill:#e88abc; stroke:none;" d="M118 117C119.377 117.911 120.44 118.404 122 119C120.686 117.382 120.123 117.307 118 117M128 117C131.432 118.44 135.3 118 139 118C135.568 116.56 131.7 117 128 117z"/>
<path style="fill:#f2c0da; stroke:none;" d="M139 117L139 119C140.635 118.455 140.455 118.635 141 117L139 117z"/>
<path style="fill:#e88abc; stroke:none;" d="M141 117C143.332 117.985 145.457 117.981 148 118C145.668 117.015 143.543 117.019 141 117z"/>
<path style="fill:#e061a4; stroke:none;" d="M10 118C10 122.205 8.03598 130.936 13 132L12 126L18 126L18 132L21 132L21 118L18 118L18 124C14.0127 123.363 12.6448 122.091 13 118L10 118M25 118L25 132C28.8253 131.986 31.6492 132.26 34 129L28 130L28 126L32 126L32 124L28 124L28 119L32 120C30.0745 117.792 27.875 118.032 25 118M36 118L36 132L39 132L39 127C41.5967 129.412 43.5868 131.053 47 132L43 125C48.8778 119.838 39.9607 118.014 36 118z"/>
<path style="fill:#f2c0da; stroke:none;" d="M44 118L45 119L44 118M49 118L50 119L49 118z"/>
<path style="fill:#e061a4; stroke:none;" d="M66 118L66 132C68.609 131.991 72.3849 132.497 74.3789 130.397C76.4193 128.247 75.6883 120.881 73.3866 119.028C71.5219 117.526 68.2204 118.008 66 118z"/>
<path style="fill:#f2c0da; stroke:none;" d="M74 118L75 119L74 118z"/>
<path style="fill:#e061a4; stroke:none;" d="M79 118L79 132L82 132L82 118L79 118M85 118C86.1083 122.655 86 127.239 86 132L89 132L89 124C91.7049 127.396 93.7442 130.699 98 132C98 127.795 99.964 119.064 95 118C95.6479 120.709 95.9417 123.216 96 126C92.1857 122.898 90.1179 118.826 85 118M118 118C119.145 122.81 119.145 127.19 118 132C121.769 131.987 124.827 132.352 127 129L121 130L121 118L118 118z"/>
<path style="fill:#ec9fc8; stroke:none;" d="M127.333 118.667C127.278 118.722 127.222 119.778 127.667 119.333C127.722 119.278 127.778 118.222 127.333 118.667z"/>
<path style="fill:#e061a4; stroke:none;" d="M128 120L132 119L132 132L135 132L135 119L139 120C136.462 117.096 130.538 117.096 128 120M141 118C141.912 122.914 141.912 127.086 141 132C144.151 131.991 148.074 132.41 150.682 130.258C154.019 127.505 153.571 121.232 149.852 119.028C147.332 117.535 143.805 118.002 141 118z"/>
<path style="fill:#e88abc; stroke:none;" d="M12 119L12 123C12.7102 121.241 12.7102 120.759 12 119z"/>
<path style="fill:#ec9fc8; stroke:none;" d="M28.6667 119.333C28.2222 119.778 29.2778 119.722 29.3333 119.667C29.7778 119.222 28.7222 119.278 28.6667 119.333z"/>
<path style="fill:#e88abc; stroke:none;" d="M39.6667 119.333C39.2222 119.778 40.2778 119.722 40.3333 119.667C40.7778 119.222 39.7222 119.278 39.6667 119.333z"/>
<path style="fill:#ec9fc8; stroke:none;" d="M53.6667 119.333C53.2222 119.778 54.2778 119.722 54.3333 119.667C54.7778 119.222 53.7222 119.278 53.6667 119.333z"/>
<path style="fill:#f6d5e6; stroke:none;" d="M65 119L65 130C66.4309 126.59 66.4309 122.41 65 119z"/>
<path style="fill:#ea95c2; stroke:none;" d="M69.6667 119.333C69.2222 119.778 70.2778 119.722 70.3333 119.667C70.7778 119.222 69.7222 119.278 69.6667 119.333z"/>
<path style="fill:#f6d5e6; stroke:none;" d="M85 119L85 133C87.4025 132.832 88.4602 132.803 90 131L86 132C86 127.737 86.6611 122.959 85 119z"/>
<path style="fill:#e88abc; stroke:none;" d="M95 119L95 126C96.0595 123.466 96.0595 121.534 95 119z"/>
<path style="fill:#eeaace; stroke:none;" d="M105.667 119.333C105.222 119.778 106.278 119.722 106.333 119.667C106.778 119.222 105.722 119.278 105.667 119.333z"/>
<path style="fill:#e88abc; stroke:none;" d="M118 119L118 131C119.512 127.396 119.512 122.604 118 119z"/>
<path style="fill:#eeaace; stroke:none;" d="M121 119L121 130C122.431 126.59 122.431 122.41 121 119M129 119C130.248 119.685 130.548 119.749 132 120C130.752 119.315 130.452 119.251 129 119M135 119C136.248 119.685 136.548 119.749 138 120C136.752 119.315 136.452 119.251 135 119M144 119L144 130C145.44 126.569 144.67 123.075 147 120C145.752 119.315 145.452 119.251 144 119z"/>
<path style="fill:#f0b5d4; stroke:none;" d="M151 119L152 120L151 119z"/>
<path style="fill:#f6d5e6; stroke:none;" d="M39 120C39.3067 122.123 39.3821 122.686 41 124C40.4038 122.44 39.9114 121.377 39 120z"/>
<path style="fill:#ffffff; stroke:none;" d="M40 120L40 123L42 123L42 120L40 120z"/>
<path style="fill:#e88abc; stroke:none;" d="M45 120L45 124C45.7102 122.241 45.7102 121.759 45 120z"/>
<path style="fill:#eeaace; stroke:none;" d="M48 120L48 123C48.6961 121.446 48.6961 121.554 48 120z"/>
<path style="fill:#ffffff; stroke:none;" d="M69 120L69 123C70.7968 123 70.5215 122.986 72 122C70.7772 120.805 70.58 120.684 69 120z"/>
<path style="fill:#f2c0da; stroke:none;" d="M71 120L72 121L71 120z"/>
<path style="fill:#eeaace; stroke:none;" d="M75 120L75 123C75.6961 121.446 75.6961 121.554 75 120M90 120L91 121L90 120z"/>
<path style="fill:#ec9fc8; stroke:none;" d="M104.333 120.667C104.278 120.722 104.222 121.778 104.667 121.333C104.722 121.278 104.778 120.222 104.333 120.667z"/>
<path style="fill:#eeaace; stroke:none;" d="M108 120L109 121L108 120z"/>
<path style="fill:#f6d5e6; stroke:none;" d="M131 120L131 133C133.993 132.936 135.346 133.054 136 130L132 132C132 128.017 132.552 123.697 131 120z"/>
<path style="fill:#e88abc; stroke:none;" d="M141 120L141 130C142.346 126.793 142.346 123.207 141 120z"/>
<path style="fill:#ffffff; stroke:none;" d="M145 120L145 130C150.682 127.826 151.116 121.857 145 120z"/>
<path style="fill:#f0b5d4; stroke:none;" d="M71 122L72 123L71 122z"/>
<path style="fill:#f2c0da; stroke:none;" d="M105 122L106 123L105 122z"/>
<path style="fill:#eeaace; stroke:none;" d="M13 123C14.769 123.779 16.0359 123.912 18 124C16.231 123.221 14.9641 123.088 13 123M28 123C29.6482 123.924 31.1749 124.449 33 125C31.4602 123.197 30.4025 123.168 28 123z"/>
<path style="fill:#f6d5e6; stroke:none;" d="M74.3333 123.667C74.2778 123.722 74.2222 124.778 74.6667 124.333C74.7222 124.278 74.7778 123.222 74.3333 123.667z"/>
<path style="fill:#eeaace; stroke:none;" d="M153 123L153 127C153.71 125.241 153.71 124.759 153 123M93 124L94 125L93 124z"/>
<path style="fill:#ea95c2; stroke:none;" d="M69.6667 125.333C69.2222 125.778 70.2778 125.722 70.3333 125.667C70.7778 125.222 69.7222 125.278 69.6667 125.333z"/>
<path style="fill:#eeaace; stroke:none;" d="M90 125L91 126L90 125z"/>
<path style="fill:#f2c0da; stroke:none;" d="M103 125L104 126L103 125z"/>
<path style="fill:#eeaace; stroke:none;" d="M108 125L109 126L108 125z"/>
<path style="fill:#e88abc; stroke:none;" d="M12 126L12 130C12.7102 128.241 12.7102 127.759 12 126M56 126L56 130C56.7102 128.24 56.7102 127.759 56 126z"/>
<path style="fill:#ffffff; stroke:none;" d="M69 126L69 130C71.0347 128.774 71.3265 128.297 72 126L69 126z"/>
<path style="fill:#f6d5e6; stroke:none;" d="M39 127L39 132L35 131C36.5398 132.803 37.5975 132.832 40 133C40.1598 130.494 40.2495 129.129 39 127z"/>
<path style="fill:#eeaace; stroke:none;" d="M72.3333 127.667C72.2778 127.722 72.2222 128.778 72.6667 128.333C72.7222 128.278 72.7778 127.222 72.3333 127.667z"/>
<path style="fill:#f6d5e6; stroke:none;" d="M105.333 127.667C105.278 127.722 105.222 128.778 105.667 128.333C105.722 128.278 105.778 127.222 105.333 127.667M109.333 127.667C109.278 127.722 109.222 128.778 109.667 128.333C109.722 128.278 109.778 127.222 109.333 127.667z"/>
<path style="fill:#eeaace; stroke:none;" d="M44 128L45 129L44 128z"/>
<path style="fill:#f6d5e6; stroke:none;" d="M29.6667 129.333C29.2222 129.778 30.2778 129.722 30.3333 129.667C30.7778 129.222 29.7222 129.278 29.6667 129.333z"/>
<path style="fill:#f2c0da; stroke:none;" d="M41 129L42 130L41 129z"/>
<path style="fill:#e88abc; stroke:none;" d="M48 129L48 132C49.0154 130.861 49.3087 130.388 50 129L48 129z"/>
<path style="fill:#eeaace; stroke:none;" d="M71 129L72 130L71 129M93 129L94 130L93 129M147 129L148 130L147 129z"/>
<path style="fill:#f0b5d4; stroke:none;" d="M42 130L43 131L42 130z"/>
<path style="fill:#ec9fc8; stroke:none;" d="M65.3333 130.667C65.2778 130.722 65.2222 131.778 65.6667 131.333C65.7222 131.278 65.7778 130.222 65.3333 130.667z"/>
<path style="fill:#f0b5d4; stroke:none;" d="M75 130L76 131L75 130z"/>
<path style="fill:#eeaace; stroke:none;" d="M108 130L109 131L108 130z"/>
<path style="fill:#f2c0da; stroke:none;" d="M43 131L44 132L43 131z"/>
<path style="fill:#f6d5e6; stroke:none;" d="M47 131C45.5215 131.986 45.7968 132 44 132C45.5225 132.855 47.9447 133.288 47 131z"/>
<path style="fill:#f2c0da; stroke:none;" d="M74 131L75 132L74 131z"/>
<path style="fill:#eeaace; stroke:none;" d="M149 131L150 132L149 131z"/>
<path style="fill:#f6d5e6; stroke:none;" d="M9 132C10.506 132.683 11.3148 132.826 13 133C11.494 132.317 10.6852 132.174 9 132z"/>
<path style="fill:#eeaace; stroke:none;" d="M49 132C50.769 132.779 52.0359 132.912 54 133C52.231 132.221 50.9641 132.088 49 132z"/>
<path style="fill:#f6d5e6; stroke:none;" d="M65 132C67.6127 133.098 70.1645 132.993 73 133C70.3873 131.902 67.8355 132.007 65 132M95 132C96.5061 132.683 97.3148 132.826 99 133C97.494 132.317 96.6852 132.174 95 132z"/>
<path style="fill:#eeaace; stroke:none;" d="M102 132C103.506 132.683 104.315 132.826 106 133C104.494 132.317 103.685 132.174 102 132z"/>
<path style="fill:#f6d5e6; stroke:none;" d="M118 132C120.613 133.098 123.165 132.993 126 133C123.387 131.902 120.835 132.007 118 132M141 132C143.332 132.985 145.457 132.981 148 133C145.668 132.015 143.543 132.019 141 132z"/>
<path style="fill:#fcc143; stroke:none;" d="M50 146C54.0807 148.651 63.8325 149.197 67 145C68.6564 147.465 69.0969 147.615 72 147L71 149C73.742 147.428 72.8409 145.609 70 145C70.9857 143.521 71 143.797 71 142C66.0552 142.001 57.9413 140.417 55 145C54.7618 142.905 54.8159 141.111 55 139C51.8813 139.028 47.83 138.731 45.6227 141.433C42.6249 145.102 46.609 148.244 50 146z"/>
<path style="fill:#e79d2c; stroke:none;" d="M81 139L81 142C79.9774 140.466 80.1954 140.598 79 140C77.5097 142.78 77.0891 144.848 77 148C82.0049 146.618 82.98 143.845 84 139L81 139z"/>
<path style="fill:#fac552; stroke:none;" d="M107 150C111.598 148.512 113.149 143.213 115 139C109.988 140.517 108.853 145.466 107 150z"/>
<path style="fill:#ffffff; stroke:none;" d="M49 140C47.8047 142.166 47.309 143.553 47 146L52 145C51.3486 142.566 50.8398 141.717 49 140M52 140L53 141L52 140z"/>
<path style="fill:#fecc4d; stroke:none;" d="M125 140C121.827 142.026 116.881 140.769 114.333 142.722C112.863 143.849 112.711 147.057 114.972 147.361C117.227 147.664 115.216 145.309 115 145C116.797 145 116.521 144.986 118 144C118.866 146.648 119.23 147.083 122 147L120 143C121.733 144.757 122.341 145.642 123 148C124.797 148 124.521 147.986 126 147C125.712 144.604 125.767 142.259 125 140z"/>
<path style="fill:#dd8927; stroke:none;" d="M83 142L83 148C87.7957 147.346 90.567 147.425 91 142C89.0478 142.511 88.543 142.733 87 144C85.4056 142.703 84.9818 142.465 83 142z"/>
<path style="fill:#e1932c; stroke:none;" d="M94 142C94.0874 145.037 93.2318 147.235 92 150L96 150C95.7924 148.339 95.5046 148.46 97 148L97 142L94 142z"/>
<path style="fill:#eaa438; stroke:none;" d="M97 142L97 147C98.3963 146.339 98.8137 146.036 100 145C101.324 147.071 101.547 147.139 104 147C102.816 145.105 102.565 144.26 103 142L97 142z"/>
<path style="fill:#f2b644; stroke:none;" d="M103 145C105.097 145 104.76 145.541 106 147L110 143C107.12 141.341 103.772 141.398 103 145z"/>
<path style="fill:#ffd042; stroke:none;" d="M129 142C130.236 146.152 132.752 147.56 137 147L135 144L138 144L138 142C135.877 142.307 135.314 142.382 134 144C132.174 142.664 131.247 142.31 129 142z"/>
<path style="fill:#e7af39; stroke:none;" d="M140 145C142.124 144.101 142.101 144.124 143 142L140.972 142.333C135.306 145.953 142.628 148.762 140 145z"/>
<path style="fill:#c8842e; stroke:none;" d="M143 142C142.874 143.714 142.698 144.433 142 146C144.17 146.542 143.902 146.84 145 145C145.986 146.479 146 146.203 146 148C146.874 145.948 146.953 144.253 147 142L143 142z"/>
<path style="fill:#bb7229; stroke:none;" d="M147 142L147 148C151.558 147.506 153.614 146.842 154 142C152.048 142.511 151.543 142.733 150 144C148.814 142.964 148.396 142.661 147 142z"/>
<path style="fill:#ffffff; stroke:none;" d="M62 143L63 144L62 143M65 143C64.0143 144.479 64 144.203 64 146C65.0817 144.616 65.1906 144.662 65 143M80 143C79.0143 144.479 79 144.203 79 146C80.0817 144.616 80.1906 144.662 80 143M102 143L103 144L102 143M131 143C131.545 144.635 131.365 144.455 133 145C132.455 143.365 132.635 143.545 131 143M143 143L142 145L144 145C144 143.147 144.3 143.65 143 143M85 144L86 145L85 144M96.3333 144.667C96.2778 144.722 96.2222 145.778 96.6667 145.333C96.7222 145.278 96.7778 144.222 96.3333 144.667z"/>
<path style="fill:#e29f3a; stroke:none;" d="M32 145C32.6836 146.58 32.8048 146.777 34 148L34 145L32 145z"/>
<path style="fill:#eeab3f; stroke:none;" d="M35 145L35 148L37 148L37 145L35 145z"/>
<path style="fill:#f8b542; stroke:none;" d="M38 145L38 148C40.7981 147.67 41.9373 147.664 43 145L38 145z"/>
<path style="fill:#ffffff; stroke:none;" d="M56.6667 145.333C56.2222 145.778 57.2778 145.722 57.3333 145.667C57.7778 145.222 56.7222 145.278 56.6667 145.333M61 145L62 146L61 145M88.6667 145.333C88.2222 145.778 89.2778 145.722 89.3333 145.667C89.7778 145.222 88.7222 145.278 88.6667 145.333M140.667 145.333C140.222 145.778 141.278 145.722 141.333 145.667C141.778 145.222 140.722 145.278 140.667 145.333M151.667 145.333C151.222 145.778 152.278 145.722 152.333 145.667C152.778 145.222 151.722 145.278 151.667 145.333z"/>
<path style="fill:#ffcf45; stroke:none;" d="M128 146C128.98 147.783 128.908 147.594 131 148C129.777 146.805 129.58 146.684 128 146z"/>
<path style="fill:#ffffff; stroke:none;" d="M130 146L131 147L130 146z"/>
</svg>
