<?xml version="1.0" encoding="iso-8859-1"?>
<!-- Generator: Adobe Illustrator 16.0.0, SVG Export Plug-In . SVG Version: 6.00 Build 0)  -->
<!DOCTYPE svg PUBLIC "-//W3C//DTD SVG 1.1//EN" "http://www.w3.org/Graphics/SVG/1.1/DTD/svg11.dtd">
<svg version="1.1" id="Capa_1" xmlns="http://www.w3.org/2000/svg" xmlns:xlink="http://www.w3.org/1999/xlink" x="0px" y="0px"
	 width="947.1px" height="947.101px" viewBox="0 0 947.1 947.101" style="enable-background:new 0 0 947.1 947.101;"
	 xml:space="preserve">
<g>
	<g>

		<path  fill="rgba(19, 149, 149, 1)" d="M361.779,222.4c24.1,0,50.6-13.4,50.6-13.4c-12.5-7.3-18.899-21.8-22-36.4c13.101,21.7,35.8,36,61.5,36s48.4-14.3,61.5-36
			c-3.1,14.7-9.5,29.1-22,36.4c0,0,26.5,13.4,50.601,13.4c15.6,0,30.3-5.6,36.1-24.3c0.9-2.8-0.3-5.8-2.9-7.1
			c-8.699-4.7-27.8-18.2-27.8-46c0-36,9-145-95.5-145s-95.5,109-95.5,145c0,27.8-19.1,41.3-27.8,46c-2.6,1.4-3.8,4.4-2.9,7.1
			C331.479,216.7,346.178,222.4,361.779,222.4z"/>
		<path  fill="rgba(19, 149, 149, 1)" d="M691.479,544c15.3-11.399,18.5-33.1,7.1-48.399l-165.7-222.8c-35.3-47-105.6-44.9-149.5-12.2
			c-0.1,0.1-137.3,102.2-137.3,102.2l-82.9-45.9V396l68.9,38.2c5.2,2.9,11,4.3,16.8,4.3c7.3,0,14.6-2.3,20.7-6.8l78.2-58.2v85.9
			l-82.8,231c-2.9,7.7,2.9,16,11.1,16h71.7V885.3c0,25.7,20.8,46.5,46.5,46.5s46.5-20.8,46.5-46.5V706.2h22.399v178.9
			c0,25.699,20.801,46.5,46.5,46.5c25.7,0,46.5-20.801,46.5-46.5V706.2h71.7c8.3,0,14-8.2,11.101-16l-82.801-231v-39.5l87.101,117.1
			c6.8,9.101,17.2,13.9,27.8,13.9C678.079,550.8,685.279,548.601,691.479,544z"/>

		
	</g>
</g>
<g>
</g>
<g>
</g>
<g>
</g>
<g>
</g>
<g>
</g>
<g>
</g>
<g>
</g>
<g>
</g>
<g>
</g>
<g>
</g>
<g>
</g>
<g>
</g>
<g>
</g>
<g>
</g>
<g>
</g>
</svg>
